<svg id="Capa_1" enable-background="new 0 0 511.973 511.973" height="512" viewBox="0 0 511.973 511.973" width="512" xmlns="http://www.w3.org/2000/svg"><g><g><path d="m214.249 318.868-40.36 40.36-10.6-10.6-10.61-10.61 40.36-40.37 10.61 10.61z" fill="#e7f2ff"/><path d="m160.228 326.248h57.081v14.994h-57.081z" fill="#d0e8ff" transform="matrix(.707 -.707 .707 .707 -180.705 231.232)"/></g><path d="m325 358.795c-47.461 0-90.425-19.248-121.516-50.367-31.042-31.07-50.24-73.985-50.24-121.389-.007-94.859 76.891-171.757 171.756-171.757 47.404 0 90.319 19.198 121.389 50.24 31.12 31.091 50.367 74.055 50.367 121.516 0 94.866-76.898 171.764-171.756 171.757z" fill="#e7f2ff"/><path d="m325 358.795c-47.461 0-90.425-19.248-121.516-50.367l242.905-242.906c31.12 31.091 50.367 74.055 50.367 121.516 0 94.866-76.898 171.764-171.756 171.757z" fill="#d0e8ff"/><path d="m195.109 380.448-44.47 44.46-73.85 73.84c-8.77 8.78-20.29 13.16-31.81 13.16-11.53 0-23.05-4.39-31.82-13.16-17.55-17.55-17.54-46.09 0-63.64l73.84-73.84 44.46-44.47z" fill="#ffdf40"/><path d="m195.109 380.448-44.47 44.46-73.85 73.84c-8.77 8.78-20.29 13.16-31.81 13.16-11.53 0-23.05-4.39-31.82-13.16l105.66-105.66 44.47-44.46z" fill="#ffbe40"/><path d="m195.109 380.448-44.47 44.46-63.64-63.64 44.46-44.47z" fill="#ff7a4d"/><path d="m125.522 364.268h62.883v45h-62.883z" fill="#f43" transform="matrix(.707 -.707 .707 .707 -227.494 224.229)"/><g><path d="m511.973 187.038c0-51.576-20.994-98.351-54.893-132.208-33.849-33.82-80.56-54.765-132.08-54.765-103.096 0-186.973 83.877-186.973 186.973 0 51.52 20.937 98.238 54.758 132.088 33.856 33.899 80.632 54.893 132.215 54.886 103.103.007 186.98-83.87 186.973-186.974zm-186.973 156.978c-43.31.007-82.583-17.628-111.016-46.089-28.383-28.411-45.955-67.635-45.962-110.888 0-86.55 70.421-156.971 156.978-156.978 43.254.007 82.47 17.586 110.881 45.969 28.461 28.433 46.096 67.705 46.096 111.009.001 86.563-70.42 156.984-156.977 156.977z" fill="#00d5ff"/><path d="m325 374.012c-51.583.007-98.358-20.987-132.215-54.886l21.199-21.199c28.433 28.461 67.705 46.096 111.016 46.089 86.557.007 156.978-70.414 156.978-156.978 0-43.303-17.635-82.576-46.096-111.009l21.199-21.199c33.899 33.856 54.893 80.631 54.893 132.208.006 103.104-83.871 186.981-186.974 186.974z" fill="#0af"/></g><g><path d="m148.285 283.626h30v130h-30z" fill="#7a8a96" transform="matrix(.707 -.707 .707 .707 -198.691 217.57)"/><path d="m171.266 339.107h30v65h-30z" fill="#4d6780" transform="matrix(.707 -.707 .707 .707 -208.21 240.551)"/></g><circle cx="325" cy="125.971" fill="#ffc5ae" r="35.913"/><path d="m393.569 230.448v37.48h-137.14v-37.48c0-37.86 30.7-68.56 68.57-68.56 7.53 0 14.78 1.21 21.56 3.46 27.31 9.03 47.01 34.77 47.01 65.1z" fill="#ff7a4d"/><path d="m393.569 230.448v37.48h-137.14v-12.45l90.13-90.13c27.31 9.03 47.01 34.77 47.01 65.1z" fill="#f43"/></g></svg>